<?xml version="1.0" encoding="UTF-8" standalone="no"?>
<svg
   viewBox="0 0 109.53 95.83"
   version="1.1"
   id="svg38"
   sodipodi:docname="RM.svg"
   inkscape:version="1.2 (1:1.2.1+202207142221+cd75a1ee6d)"
   xmlns:inkscape="http://www.inkscape.org/namespaces/inkscape"
   xmlns:sodipodi="http://sodipodi.sourceforge.net/DTD/sodipodi-0.dtd"
   xmlns="http://www.w3.org/2000/svg"
   xmlns:svg="http://www.w3.org/2000/svg">
  <sodipodi:namedview
     id="namedview40"
     pagecolor="#ffffff"
     bordercolor="#666666"
     borderopacity="1.0"
     inkscape:showpageshadow="2"
     inkscape:pageopacity="0.0"
     inkscape:pagecheckerboard="0"
     inkscape:deskcolor="#d1d1d1"
     showgrid="false"
     inkscape:zoom="2.4626943"
     inkscape:cx="54.81801"
     inkscape:cy="48.118031"
     inkscape:window-width="1294"
     inkscape:window-height="704"
     inkscape:window-x="72"
     inkscape:window-y="27"
     inkscape:window-maximized="1"
     inkscape:current-layer="svg38" />
  <defs
     id="defs4">
    <style
       id="style2">.cls-1{fill:#999;stroke:#808184;}.cls-1,.cls-2,.cls-3,.cls-4{stroke-miterlimit:10;}.cls-2{fill:#ac0100;stroke:#be1e2d;}.cls-3{fill:#231f20;stroke:#231f20;stroke-width:2px;}.cls-4{fill:#ff2625;stroke:#ec1c24;}.cls-5{fill:#fff;}</style>
  </defs>
  <g
     id="Calque_2"
     data-name="Calque 2">
    <g
       id="logo">
      <polygon
         class="cls-1"
         points="34.78 79.91 26.23 93.38 1.42 49.91 16.56 49.5 34.78 79.91"
         id="polygon6" />
      <polygon
         class="cls-1"
         points="42.7 64.7 36.55 77.35 21.07 50.23 33.49 49.87 42.7 64.7"
         id="polygon8" />
      <polygon
         class="cls-1"
         points="52.07 49.62 45.11 61.39 37.52 49.51 51.11 49.52 52.07 49.62"
         id="polygon10" />
      <polygon
         class="cls-2"
         points="75.09 16.09 83.54 2.54 108.68 45.83 93.54 46.35 75.09 16.09"
         id="polygon12" />
      <polygon
         class="cls-2"
         points="67.29 31.35 73.34 18.65 89.03 45.66 76.61 46.11 67.29 31.35"
         id="polygon14" />
      <polygon
         class="cls-2"
         points="58.04 46.5 64.9 34.67 72.58 46.51 58.99 46.59 58.04 46.5"
         id="polygon16" />
      <polygon
         class="cls-3"
         points="1.69 45.87 16.93 45.87 41.54 1 26.3 1 1.69 45.87"
         id="polygon18" />
      <polygon
         class="cls-3"
         points="20.27 45.87 35.5 45.87 60.12 1 44.88 1 20.27 45.87"
         id="polygon20" />
      <polygon
         class="cls-3"
         points="38.99 45.87 54.23 45.87 78.84 1 63.61 1 38.99 45.87"
         id="polygon22" />
      <polygon
         class="cls-4"
         points="30.15 95.33 45.39 95.33 70 50.46 54.77 50.46 30.15 95.33"
         id="polygon24" />
      <polygon
         class="cls-4"
         points="48.73 95.33 63.97 95.33 88.58 50.46 73.35 50.46 48.73 95.33"
         id="polygon26" />
      <polygon
         class="cls-4"
         points="67.46 95.33 82.69 95.33 107.31 50.46 92.07 50.46 67.46 95.33"
         id="polygon28" />
      <path
         class="cls-5"
         d="M22,58.24l12.3-17.7V40.4H23.09V35.57H41.83V39l-12,17.47v.14H42v4.83H22Z"
         id="path30" />
      <path
         class="cls-5"
         d="M63.82,60.68a16.77,16.77,0,0,1-6.6,1.12c-8.95,0-13.55-5.59-13.55-12.95,0-8.81,6.31-13.68,14.1-13.68a14.94,14.94,0,0,1,6.36,1.14l-1.19,4.62A12.22,12.22,0,0,0,58,40c-4.6,0-8.22,2.81-8.22,8.55,0,5.17,3.06,8.43,8.26,8.43A14.11,14.11,0,0,0,63,56.1Z"
         id="path32" />
      <path
         class="cls-5"
         d="M67.86,55.37A14.45,14.45,0,0,0,74.33,57c2.68,0,4.11-1.12,4.11-2.82s-1.24-2.52-4.33-3.6C69.8,49,67,46.69,67,42.92c0-4.41,3.7-7.75,9.77-7.75a15.22,15.22,0,0,1,6.59,1.3l-1.29,4.68a12.33,12.33,0,0,0-5.39-1.23c-2.54,0-3.76,1.18-3.76,2.5,0,1.64,1.43,2.37,4.78,3.63,4.58,1.71,6.69,4.08,6.69,7.73,0,4.31-3.3,8-10.41,8a16.68,16.68,0,0,1-7.29-1.61Z"
         id="path34" />
    </g>
  </g>
</svg>
